<svg xmlns="http://www.w3.org/2000/svg" width="1200" height="150" viewBox="0 0 1200 150" role="img" aria-labelledby="t d">
  <title id="t">这是什么</title><desc id="d">01 · WHAT IS THIS · 这是什么</desc>
  <defs><pattern id="g" width="34" height="34" patternUnits="userSpaceOnUse"><path d="M34 0H0V34" fill="none" stroke="#4a3f35" stroke-opacity=".045"/></pattern></defs>
  <rect width="1200" height="150" rx="22" fill="#F2F7EF"/><rect width="1200" height="150" rx="22" fill="url(#g)"/>
  <g font-family="-apple-system,BlinkMacSystemFont,'Segoe UI','PingFang SC','Hiragino Sans GB',sans-serif">
    <text x="54" y="36" fill="#8a7b60" font-size="15" font-weight="700" letter-spacing="2.6">01 · WHAT IS THIS</text>
    <rect x="54" y="52" width="50" height="5" rx="2.5" fill="#19c8b9"/>
    <text x="54" y="114" fill="#4a3f35" font-size="43" font-weight="780">这是什么</text>
    <text x="1080" y="112" fill="#4a3f35" fill-opacity=".13" font-size="76" font-weight="820">01</text>
    <!-- 刘海 + 面板 motif -->
    <rect x="1002" y="60" width="56" height="14" rx="7" fill="#1d1a17"/>
    <rect x="1016" y="74" width="28" height="34" rx="4" fill="#faf7ef" stroke="#bdaea0" stroke-opacity=".5"/>
    <circle cx="1026" cy="80" r="2.5" fill="#19c8b9"/>
    <path d="M1020 90 h20 M1020 95 h14" stroke="#e4dcc8" stroke-width="3" stroke-linecap="round"/>
    <path d="M1088 84 q7 -5 15 -10 q-4 8 -9 11 q-3 2 -6 1 q-2 -1 0 -2 Z" fill="#8ac68a"/>
  </g>
</svg>
